<svg width="30" height="34" viewBox="0 0 30 34" fill="none" xmlns="http://www.w3.org/2000/svg">
<path d="M29.9906 16.9808C29.9906 19.4994 29.9719 22.0273 29.9906 24.5459C29.9906 25.2735 29.7188 25.7493 29.1003 26.1037C24.6392 28.6596 20.1874 31.2249 15.7357 33.7901C15.2577 34.07 14.7798 34.07 14.3018 33.7901C9.85005 31.2249 5.39831 28.6596 0.937206 26.1037C0.281162 25.7493 0.00937207 25.2642 0.00937207 24.5273C0.0281162 19.6487 0.0187441 14.7607 0.00937207 9.88209C0.00937207 9.64889 0 9.41569 0 9.19181C0 8.64145 0.22493 8.23101 0.712277 7.95117C5.15464 5.40458 9.597 2.86733 14.0206 0.302091C14.7048 -0.0896908 15.2858 -0.108347 15.97 0.292763C20.3936 2.858 24.836 5.38593 29.269 7.93251C29.747 8.21235 30 8.61346 30 9.17315C30 11.7757 30 14.3783 30 16.9901C30 16.9901 30 16.9901 29.9906 16.9901L29.9906 16.9808ZM26.0356 9.12651C25.9419 9.06122 25.9044 9.03323 25.8763 9.01458C22.343 6.98104 18.8097 4.95683 15.2858 2.91397C15.0422 2.77405 14.8922 2.84867 14.686 2.96061C11.2465 4.93818 7.80693 6.90641 4.37676 8.88398C4.26429 8.94928 4.1612 9.0239 4.02062 9.11718C4.12371 9.18248 4.18931 9.23845 4.25492 9.27576C7.7507 11.2813 11.2465 13.2869 14.7423 15.3111C14.9766 15.4417 15.1359 15.4043 15.3421 15.2831C18.2662 13.5947 21.1996 11.9156 24.1237 10.2366C24.7516 9.88209 25.3702 9.51829 26.045 9.12651L26.0356 9.12651ZM13.6739 30.404C13.6832 30.2921 13.6926 30.2361 13.6926 30.1895C13.6926 26.1317 13.6926 22.0646 13.6832 18.0069C13.6832 17.8577 13.5426 17.6618 13.4114 17.5778C9.94377 15.5723 6.4761 13.576 2.99906 11.5891C2.90534 11.5332 2.79288 11.4959 2.67104 11.4306C2.67104 11.5425 2.6523 11.5891 2.6523 11.6451C2.6523 15.6935 2.6523 19.7419 2.6523 23.7903C2.6523 24.0422 2.76476 24.1448 2.96158 24.2568C4.87348 25.3481 6.77601 26.4395 8.68791 27.5403C10.3374 28.4824 11.9775 29.4339 13.6832 30.404H13.6739ZM27.3664 11.4212C27.2446 11.4772 27.1696 11.5052 27.104 11.5425C23.5989 13.5574 20.0937 15.5723 16.5792 17.5778C16.3636 17.6991 16.3261 17.8483 16.3261 18.0722C16.3261 22.0646 16.3261 26.0571 16.3261 30.0495V30.404C16.4574 30.3387 16.5323 30.3014 16.5979 30.2641C20.0937 28.2585 23.5895 26.2436 27.0853 24.2474C27.3383 24.1075 27.3664 23.9209 27.3664 23.6784C27.3664 19.7419 27.3664 15.8055 27.3664 11.8597C27.3664 11.7291 27.3664 11.5985 27.3664 11.4119L27.3664 11.4212Z" fill="#4E0F19"/>
</svg>
