<svg width="76" height="34" viewBox="0 0 76 34" fill="none" xmlns="http://www.w3.org/2000/svg">
<path d="M50.0556 3.4H48.3333V0H44.8889V3.4H31.1111V0H27.6667V3.4H25.9444C24.0328 3.4 22.5172 4.93 22.5172 6.8L22.5 30.6C22.5 32.47 24.0328 34 25.9444 34H50.0556C51.95 34 53.5 32.47 53.5 30.6V6.8C53.5 4.93 51.95 3.4 50.0556 3.4ZM50.0556 30.6H25.9444V13.6H50.0556V30.6ZM32.8333 20.4H29.3889V17H32.8333V20.4ZM39.7222 20.4H36.2778V17H39.7222V20.4ZM46.6111 20.4H43.1667V17H46.6111V20.4ZM32.8333 27.2H29.3889V23.8H32.8333V27.2ZM39.7222 27.2H36.2778V23.8H39.7222V27.2ZM46.6111 27.2H43.1667V23.8H46.6111V27.2Z" fill="#4E0F19"/>
</svg>
