<svg width="34" height="33" viewBox="0 0 34 33" fill="none" xmlns="http://www.w3.org/2000/svg">
<path d="M21.918 8.43555C28.511 8.76879 33.75 14.0076 33.75 20.4199C33.7497 27.0471 28.1534 32.4199 21.25 32.4199C19.7574 32.4199 18.3269 32.1659 17 31.7051V32H0V16H7.18555L17 0.836914L21.918 8.43555ZM21.5 11C17.9317 11 14.5931 13.096 12.8213 16H17V28.4805C18.3771 29.1304 19.9156 29.5 21.5 29.5C26.7467 29.5 31 24.9706 31 20C31 15.0294 26.7467 11 21.5 11ZM3 19V29H14V19H3ZM14.3916 10.3877C15.6321 9.60451 17.0261 9.02868 18.5215 8.70898L17 6.3584L14.3916 10.3877Z" fill="#4E0F19"/>
</svg>
